<?xml version="1.0" encoding="UTF-8" standalone="no"?>
<!-- Created with Inkscape (http://www.inkscape.org/) -->

<svg
   xmlns:dc="http://purl.org/dc/elements/1.1/"
   xmlns:cc="http://creativecommons.org/ns#"
   xmlns:rdf="http://www.w3.org/1999/02/22-rdf-syntax-ns#"
   xmlns:svg="http://www.w3.org/2000/svg"
   xmlns="http://www.w3.org/2000/svg"
   xmlns:sodipodi="http://sodipodi.sourceforge.net/DTD/sodipodi-0.dtd"
   xmlns:inkscape="http://www.inkscape.org/namespaces/inkscape"
   width="210mm"
   height="297mm"
   viewBox="0 0 744.09448819 1052.3622047"
   id="svg2"
   version="1.1"
   inkscape:version="0.91 r13725"
   sodipodi:docname="tram.svg">
  <defs
     id="defs4" />
  <sodipodi:namedview
     id="base"
     pagecolor="#ffffff"
     bordercolor="#666666"
     borderopacity="1.0"
     inkscape:pageopacity="0.0"
     inkscape:pageshadow="2"
     inkscape:zoom="1.4"
     inkscape:cx="419.01314"
     inkscape:cy="904.7714"
     inkscape:document-units="px"
     inkscape:current-layer="layer1"
     showgrid="false"
     inkscape:window-width="1301"
     inkscape:window-height="711"
     inkscape:window-x="65"
     inkscape:window-y="29"
     inkscape:window-maximized="0" />
  <metadata
     id="metadata7">
    <rdf:RDF>
      <cc:Work
         rdf:about="">
        <dc:format>image/svg+xml</dc:format>
        <dc:type
           rdf:resource="http://purl.org/dc/dcmitype/StillImage" />
        <dc:title />
      </cc:Work>
    </rdf:RDF>
  </metadata>
  <g
     inkscape:label="Ebene 1"
     inkscape:groupmode="layer"
     id="layer1">
    <path
       style="fill:none;fill-rule:evenodd;stroke:#000000;stroke-width:5;stroke-linecap:butt;stroke-linejoin:miter;stroke-opacity:1;stroke-miterlimit:4;stroke-dasharray:none"
       d="m 294.45947,244.74524 310.11683,1.51523 7.57614,-5.55584 0,-6.06091 -0.86221,-76.26652 -5.1987,-8.08122 -9.09138,-5.05076 -82.32743,-0.50508 27.17695,-35.1715 -25.51378,-31.906472 -28.01379,30.835042 25.84555,36.095 -110.10663,-0.50508 25.82017,-34.16135 -24.03446,-30.600449 -28.85062,31.967739 26.05476,32.85534 -98.34194,-0.38253 -6.56599,1.51523 -3.03046,5.55584 -2.16824,85.82707 0.18163,5.63944 1.42289,2.42209"
       id="path3336"
       inkscape:connector-curvature="0"
       sodipodi:nodetypes="ccccccccccccccccccccccc" />
    <path
       style="fill:none;fill-rule:evenodd;stroke:#000000;stroke-width:5;stroke-linecap:butt;stroke-linejoin:miter;stroke-opacity:1;stroke-miterlimit:4;stroke-dasharray:none"
       d="m 602.0005,157.57327 2.30873,2.09767 1.82719,2.49814 -0.065,10.90741 -0.71429,17.14286 0,12.5 -3.21428,2.14285 -3.92857,0.35715 -17.14286,-0.35715 -2.5,-2.14285 -1.07143,-3.57143 0.23087,-38.90877 1.87052,-2.89861 16.1129,-0.69262 0,0 z"
       id="path3346"
       inkscape:connector-curvature="0"
       sodipodi:nodetypes="cccccccccccccccc" />
    <path
       style="fill:none;fill-rule:evenodd;stroke:#000000;stroke-width:5;stroke-linecap:butt;stroke-linejoin:miter;stroke-opacity:1;stroke-miterlimit:4;stroke-dasharray:none"
       d="m 563.03917,156.85851 2.30873,2.09767 1.82719,2.49814 -0.065,10.90741 -0.71429,17.14286 0,12.5 -3.21428,2.14285 -3.92857,0.35715 -17.14286,-0.35715 -2.5,-2.14285 -1.07143,-3.57143 0.23087,-38.90877 1.87052,-2.89861 16.1129,-0.69262 0,0 z"
       id="path3346-3"
       inkscape:connector-curvature="0"
       sodipodi:nodetypes="cccccccccccccccc" />
    <path
       style="fill:none;fill-rule:evenodd;stroke:#000000;stroke-width:5;stroke-linecap:butt;stroke-linejoin:miter;stroke-opacity:1;stroke-miterlimit:4;stroke-dasharray:none"
       d="m 525.18202,156.85852 2.30873,2.09767 1.82719,2.49814 -0.065,10.90741 -0.71429,17.14286 0,12.5 -3.21428,2.14285 -3.92857,0.35715 -17.14286,-0.35715 -2.5,-2.14285 -1.07143,-3.57143 0.23087,-38.90877 1.87052,-2.89861 16.1129,-0.69262 0,0 z"
       id="path3346-3-7"
       inkscape:connector-curvature="0"
       sodipodi:nodetypes="cccccccccccccccc" />
    <path
       style="fill:none;fill-rule:evenodd;stroke:#000000;stroke-width:5;stroke-linecap:butt;stroke-linejoin:miter;stroke-opacity:1;stroke-miterlimit:4;stroke-dasharray:none"
       d="m 485.89631,156.14423 2.30873,2.09767 1.82719,2.49814 -0.065,10.90741 -0.71429,17.14286 0,12.5 -3.21428,2.14285 -3.92857,0.35715 -17.14286,-0.35715 -2.5,-2.14285 -1.07143,-3.57143 0.23087,-38.90877 1.87052,-2.89861 16.1129,-0.69262 0,0 z"
       id="path3346-3-5"
       inkscape:connector-curvature="0"
       sodipodi:nodetypes="cccccccccccccccc" />
    <path
       style="fill:none;fill-rule:evenodd;stroke:#000000;stroke-width:5;stroke-linecap:butt;stroke-linejoin:miter;stroke-opacity:1;stroke-miterlimit:4;stroke-dasharray:none"
       d="m 445.89631,156.14423 2.30873,2.09767 1.82719,2.49814 -0.065,10.90741 -0.71429,17.14286 0,12.5 -3.21428,2.14285 -3.92857,0.35715 -17.14286,-0.35715 -2.5,-2.14285 -1.07143,-3.57143 0.23087,-38.90877 1.87052,-2.89861 16.1129,-0.69262 0,0 z"
       id="path3346-3-3"
       inkscape:connector-curvature="0"
       sodipodi:nodetypes="cccccccccccccccc" />
    <path
       style="fill:none;fill-rule:evenodd;stroke:#000000;stroke-width:5;stroke-linecap:butt;stroke-linejoin:miter;stroke-opacity:1;stroke-miterlimit:4;stroke-dasharray:none"
       d="m 405.89631,156.14422 2.30873,2.09767 1.82719,2.49814 -0.065,10.90742 -0.71429,17.14286 0,12.5 -3.21428,2.14285 -3.92857,0.35715 -17.14286,-0.35715 -2.5,-2.14285 -1.07143,-3.57143 0.23087,-38.90878 1.87052,-2.89861 16.1129,-0.69262 0,0 z"
       id="path3346-3-2"
       inkscape:connector-curvature="0"
       sodipodi:nodetypes="cccccccccccccccc" />
    <path
       style="fill:none;fill-rule:evenodd;stroke:#000000;stroke-width:5;stroke-linecap:butt;stroke-linejoin:miter;stroke-opacity:1;stroke-miterlimit:4;stroke-dasharray:none"
       d="m 367.32488,156.85852 2.30873,2.09767 1.82719,2.49814 -0.065,10.90741 -0.71429,17.14286 0,12.5 -3.21428,2.14285 -3.92857,0.35715 -17.14286,-0.35715 -2.5,-2.14285 -1.07143,-3.57143 0.23087,-38.90877 1.87052,-2.89861 16.1129,-0.69262 0,0 z"
       id="path3346-3-1"
       inkscape:connector-curvature="0"
       sodipodi:nodetypes="cccccccccccccccc" />
    <path
       style="fill:none;fill-rule:evenodd;stroke:#000000;stroke-width:5;stroke-linecap:butt;stroke-linejoin:miter;stroke-opacity:1;stroke-miterlimit:4;stroke-dasharray:none"
       d="m 328.03917,157.5728 2.30873,2.09767 1.82719,2.49814 -0.065,10.90741 -0.71429,17.14286 0,12.5 -3.21428,2.14285 -3.92857,0.35715 -17.14286,-0.35715 -2.5,-2.14285 -1.07143,-3.57143 0.23087,-38.90877 1.87052,-2.89861 16.1129,-0.69262 0,0 z"
       id="path3346-3-27"
       inkscape:connector-curvature="0"
       sodipodi:nodetypes="cccccccccccccccc" />
  </g>
</svg>
